<svg width="15" height="15" viewBox="0 0 15 15" fill="none" xmlns="http://www.w3.org/2000/svg">
<path d="M10.5 4L10.1015 4.28937C10.1015 4.28937 9.6045 4.6591 8.89075 5.02482C8.1765 5.3903 7.247 5.7445 6.42975 5.7445H4V8.0287L4.00775 8.06775L4.50775 9.82002L4.5625 10H6.07825L5.99225 9.67934L5.586 8.24774H6.42975C7.23625 8.24774 8.166 8.60845 8.88275 8.97518C9.5995 9.3419 10.1015 9.70287 10.1015 9.70287L10.5 9.99199V7.69978C10.789 7.59539 11 7.31954 11 6.99587C11 6.6722 10.789 6.39635 10.5 6.29171V4ZM10 4.93095V9.05353C9.793 8.9136 9.629 8.78643 9.10925 8.52159C8.375 8.14611 7.42675 7.76561 6.5 7.74709V6.24515C7.4355 6.22663 8.385 5.83837 9.11725 5.46289C9.63575 5.1968 9.79475 5.07088 10 4.93095ZM4.5 6.24515H6V7.74709H4.5V6.24515ZM4.586 8.24774H5.0625L5.414 9.49935H4.9375L4.586 8.24774Z" fill="white"/>
<circle cx="7.5" cy="7.5" r="7.25" stroke="#23AAB4" stroke-width="0.5"/>
</svg>
