<svg width="66" height="69" viewBox="0 0 66 69" fill="none" xmlns="http://www.w3.org/2000/svg">
<path d="M26.1918 41.2431L14.7804 21.8227C14.2464 20.9137 14.0952 19.8298 14.3603 18.8095C14.6253 17.7891 15.2849 16.9158 16.1938 16.3817C17.1027 15.8476 18.1866 15.6964 19.2069 15.9615C20.2273 16.2265 21.1006 16.8861 21.6347 17.795L31.7036 34.9307" stroke="white" stroke-width="3" stroke-linecap="round" stroke-linejoin="round"/>
<path d="M31.0322 33.7884L28.3471 29.2189C27.813 28.3099 27.6619 27.2261 27.9269 26.2057C28.192 25.1853 28.8515 24.312 29.7604 23.7779C30.6694 23.2439 31.7533 23.0927 32.7736 23.3578C33.794 23.6228 34.6673 24.2824 35.2014 25.1913L38.5577 30.9032" stroke="white" stroke-width="3" stroke-linecap="round" stroke-linejoin="round"/>
<path d="M36.5441 27.4762C36.01 26.5673 35.8589 25.4834 36.1239 24.463C36.389 23.4427 37.0485 22.5694 37.9575 22.0353C38.8664 21.5012 39.9503 21.35 40.9706 21.6151C41.991 21.8801 42.8643 22.5397 43.3984 23.4486L45.4122 26.8757" stroke="white" stroke-width="3" stroke-linecap="round" stroke-linejoin="round"/>
<path d="M44.7408 25.7332C44.2067 24.8242 44.0555 23.7404 44.3206 22.72C44.5857 21.6996 45.2452 20.8263 46.1541 20.2922C47.0631 19.7581 48.1469 19.607 49.1673 19.872C50.1877 20.1371 51.061 20.7966 51.5951 21.7056L57.6364 31.987C59.7728 35.6227 60.3774 39.9582 59.3172 44.0397C58.257 48.1212 55.6188 51.6143 51.9831 53.7507L47.4136 56.4357L47.8888 56.1565C45.6188 57.4909 43.0528 58.2406 40.4214 58.3384C37.7901 58.4361 35.1756 57.8788 32.8128 56.7164L31.9622 56.2941C30.6063 55.6186 25.5416 52.7271 16.7645 47.6186C15.8698 47.0979 15.2135 46.2487 14.9352 45.2515C14.657 44.2544 14.7787 43.188 15.2745 42.2793C15.8024 41.3109 16.6387 40.5467 17.6507 40.108C18.6626 39.6693 19.792 39.5813 20.8597 39.858L26.1918 41.2431" stroke="white" stroke-width="3" stroke-linecap="round" stroke-linejoin="round"/>
<path d="M5.91212 22.4227L2.28491 21.4805" stroke="white" stroke-width="3" stroke-linecap="round" stroke-linejoin="round"/>
<path d="M8.99765 32.9048L6.71289 34.2473" stroke="white" stroke-width="3" stroke-linecap="round" stroke-linejoin="round"/>
<path d="M26.4751 10.34L27.4174 6.71259" stroke="white" stroke-width="3" stroke-linecap="round" stroke-linejoin="round"/>
<path d="M32.7874 15.8523L35.0722 14.5098" stroke="white" stroke-width="3" stroke-linecap="round" stroke-linejoin="round"/>
</svg>
