<svg width="25" height="25" viewBox="0 0 25 25" fill="none" xmlns="http://www.w3.org/2000/svg">
<path fill-rule="evenodd" clip-rule="evenodd" d="M0 12.4688C0 9.16183 1.31367 5.99036 3.65201 3.65201C5.99036 1.31367 9.16183 0 12.4688 0C15.7757 0 18.9471 1.31367 21.2855 3.65201C23.6238 5.99036 24.9375 9.16183 24.9375 12.4688C24.9375 15.7757 23.6238 18.9471 21.2855 21.2855C18.9471 23.6238 15.7757 24.9375 12.4688 24.9375C9.16183 24.9375 5.99036 23.6238 3.65201 21.2855C1.31367 18.9471 0 15.7757 0 12.4688H0ZM11.7572 17.8054L18.9359 8.8312L17.6391 7.7938L11.5178 15.443L7.182 11.8304L6.118 13.1072L11.7572 17.807V17.8054Z" fill="#23AAB4"/>
</svg>
