<svg width="68" height="61" viewBox="0 0 68 61" fill="none" xmlns="http://www.w3.org/2000/svg">
<path d="M54.7785 0H13.2215C12.7493 0 12.3006 0.23827 12.0409 0.643328L0.234951 18.18C-0.107422 18.7042 -0.0720036 19.3951 0.317593 19.8717L32.902 60.4728C33.4687 61.1757 34.5313 61.1757 35.098 60.4728L67.6824 19.8717C68.072 19.3832 68.1074 18.7042 67.765 18.18L55.9709 0.643328C55.6994 0.23827 55.2625 0 54.7785 0ZM52.4999 5.71847L59.9731 17.1554H51.8978L45.7942 5.71847H52.4999V5.71847ZM28.6401 5.71847H39.3481L45.4518 17.1554H22.5482L28.6401 5.71847ZM15.5001 5.71847H22.2058L16.1022 17.1554H8.02688L15.5001 5.71847ZM10.4235 22.8739H16.4918L24.5552 41.9354L10.4235 22.8739V22.8739ZM22.5718 22.8739H45.4282L34 51.8594L22.5718 22.8739V22.8739ZM43.4448 41.9354L51.4964 22.8739H57.5647L43.4448 41.9354Z" fill="white"/>
</svg>
