<svg width="60" height="60" viewBox="0 0 60 60" fill="none" xmlns="http://www.w3.org/2000/svg">
<circle cx="30" cy="30" r="30" fill="black"/>
<circle cx="30" cy="30" r="30" fill="black"/>
<path d="M26.9701 35.9549C26.8133 35.9574 26.6575 35.929 26.5117 35.8713C26.3659 35.8136 26.2329 35.7277 26.1203 35.6185C26.0077 35.5094 25.9178 35.3791 25.8556 35.2351C25.7934 35.0912 25.7601 34.9364 25.7578 34.7796V26.4494C25.7578 26.1279 25.8855 25.8195 26.1129 25.5922C26.3402 25.3648 26.6486 25.2371 26.9701 25.2371C27.2916 25.2371 27.5999 25.3648 27.8273 25.5922C28.0546 25.8195 28.1824 26.1279 28.1824 26.4494V34.7796C28.18 34.9364 28.1468 35.0912 28.0846 35.2351C28.0224 35.3791 27.9324 35.5094 27.8198 35.6185C27.7073 35.7277 27.5743 35.8136 27.4284 35.8713C27.2826 35.929 27.1269 35.9574 26.9701 35.9549V35.9549Z" fill="#197E87"/>
<path fill-rule="evenodd" clip-rule="evenodd" d="M23.3088 14H35.212C36.106 14.0027 36.9626 14.359 37.5948 14.9912C38.2269 15.6233 38.5833 16.4799 38.5859 17.3739V19.4871H37.1095V17.3739C37.1082 16.8718 36.9081 16.3906 36.553 16.0355C36.1979 15.6804 35.7167 15.4803 35.2146 15.479H23.3088C22.8067 15.4806 22.3257 15.6808 21.9707 16.0358C21.6157 16.3909 21.4155 16.8719 21.4138 17.3739V42.8061C21.4155 43.3083 21.6159 43.7895 21.9712 44.1446C22.3265 44.4996 22.8078 44.6997 23.3101 44.701H35.2133C35.7157 44.7 36.1972 44.5001 36.5526 44.145C36.9079 43.7898 37.1082 43.3084 37.1095 42.8061V40.758H38.5885V42.8061C38.5858 43.7001 38.2295 44.5567 37.5973 45.1888C36.9652 45.821 36.1086 46.1773 35.2146 46.18H23.3088C22.4146 46.1776 21.5577 45.8215 20.9252 45.1893C20.2928 44.5571 19.9363 43.7003 19.9336 42.8061V17.3739C19.9363 16.4797 20.2928 15.6229 20.9252 14.9907C21.5577 14.3585 22.4146 14.0024 23.3088 14" fill="#197E87"/>
<path fill-rule="evenodd" clip-rule="evenodd" d="M37.8495 18.2174C38.0452 18.2181 38.2328 18.2961 38.3712 18.4346C38.5096 18.573 38.5877 18.7605 38.5883 18.9563V20.0103C38.588 20.2063 38.5101 20.3941 38.3716 20.5328C38.2332 20.6715 38.0455 20.7497 37.8495 20.7504V20.7504C37.6534 20.7497 37.4655 20.6715 37.3269 20.5329C37.1882 20.3942 37.11 20.2064 37.1094 20.0103V18.9563C37.11 18.7603 37.1883 18.5726 37.327 18.4341C37.4657 18.2957 37.6535 18.2177 37.8495 18.2174" fill="#197E87"/>
<path fill-rule="evenodd" clip-rule="evenodd" d="M37.8495 39.4921C38.0452 39.4928 38.2328 39.5709 38.3712 39.7093C38.5096 39.8477 38.5877 40.0352 38.5883 40.231V41.285C38.588 41.481 38.5101 41.6688 38.3716 41.8075C38.2332 41.9462 38.0455 42.0245 37.8495 42.0251V42.0251C37.6534 42.0245 37.4655 41.9463 37.3269 41.8076C37.1882 41.669 37.11 41.4811 37.1094 41.285V40.231C37.11 40.035 37.1883 39.8473 37.327 39.7088C37.4657 39.5704 37.6535 39.4925 37.8495 39.4921" fill="#197E87"/>
<path fill-rule="evenodd" clip-rule="evenodd" d="M19.2911 24.6795C19.0624 24.4397 18.7881 24.2479 18.4843 24.1155C18.1805 23.9831 17.8533 23.9127 17.5219 23.9084C17.1906 23.9041 16.8617 23.966 16.5545 24.0905C16.2474 24.215 15.9682 24.3995 15.7333 24.6333C15.4985 24.867 15.3126 25.1454 15.1867 25.4519C15.0608 25.7584 14.9973 26.087 15.0001 26.4184C15.0028 26.7498 15.0717 27.0773 15.2027 27.3817C15.3336 27.6861 15.5241 27.9613 15.7628 28.1912L15.773 28.2014C18.4953 31.0403 21.2124 33.8765 23.9245 36.7103C24.1533 36.9501 24.4276 37.1418 24.7314 37.2742C25.0352 37.4066 25.3623 37.477 25.6937 37.4813C26.0251 37.4856 26.354 37.4237 26.6611 37.2992C26.9682 37.1748 27.2474 36.9902 27.4823 36.7565C27.7172 36.5227 27.903 36.2444 28.0289 35.9378C28.1548 35.6313 28.2183 35.3027 28.2155 34.9713C28.2128 34.6399 28.1439 34.3124 28.013 34.008C27.882 33.7036 27.6916 33.4284 27.4529 33.1985L27.4427 33.187C24.7221 30.349 22.0049 27.5132 19.2911 24.6795ZM38.1629 33.187C35.4407 30.349 32.7239 27.5132 30.0127 24.6795C29.7839 24.4397 29.5096 24.2479 29.2058 24.1155C28.902 23.9831 28.5749 23.9127 28.2435 23.9084C27.9121 23.9041 27.5832 23.966 27.2761 24.0905C26.969 24.215 26.6898 24.3995 26.4549 24.6333C26.22 24.867 26.0342 25.1454 25.9083 25.4519C25.7824 25.7584 25.7189 26.087 25.7216 26.4184C25.7244 26.7498 25.7933 27.0773 25.9242 27.3817C26.0552 27.6861 26.2456 27.9613 26.4843 28.1912L26.4945 28.2014L34.6448 36.7141C34.8735 36.9539 35.1479 37.1456 35.4516 37.278C35.7554 37.4104 36.0826 37.4808 36.414 37.4851C36.7453 37.4894 37.0742 37.4275 37.3814 37.3031C37.6885 37.1786 37.9677 36.9941 38.2026 36.7603C38.4375 36.5265 38.6233 36.2482 38.7492 35.9416C38.8751 35.6351 38.9386 35.3065 38.9358 34.9751C38.9331 34.6437 38.8642 34.3162 38.7333 34.0118C38.6023 33.7074 38.4119 33.4322 38.1732 33.2023L38.1629 33.187Z" fill="#23AAB4"/>
<path fill-rule="evenodd" clip-rule="evenodd" d="M33.3555 17.3471C33.3555 17.2714 33.333 17.1974 33.291 17.1344C33.2489 17.0715 33.1891 17.0224 33.1192 16.9934C33.0492 16.9645 32.9722 16.9569 32.898 16.9717C32.8237 16.9864 32.7555 17.0229 32.702 17.0764C32.6484 17.13 32.612 17.1982 32.5972 17.2724C32.5824 17.3467 32.59 17.4237 32.619 17.4936C32.648 17.5636 32.697 17.6234 32.76 17.6654C32.8229 17.7075 32.897 17.7299 32.9727 17.7299C33.0742 17.7299 33.1716 17.6896 33.2434 17.6178C33.3152 17.546 33.3555 17.4486 33.3555 17.3471" fill="#197E87"/>
<path fill-rule="evenodd" clip-rule="evenodd" d="M31.5329 17.2961C31.5329 17.2528 31.5244 17.2099 31.5077 17.1698C31.4911 17.1298 31.4667 17.0934 31.436 17.0629C31.4053 17.0323 31.3689 17.008 31.3288 16.9916C31.2887 16.9751 31.2458 16.9667 31.2024 16.9669H25.8276C25.7825 16.9641 25.7374 16.9705 25.695 16.9858C25.6525 17.0012 25.6136 17.025 25.5807 17.0559C25.5478 17.0868 25.5216 17.1241 25.5037 17.1655C25.4858 17.207 25.4766 17.2516 25.4766 17.2968C25.4766 17.3419 25.4858 17.3865 25.5037 17.428C25.5216 17.4694 25.5478 17.5067 25.5807 17.5376C25.6136 17.5685 25.6525 17.5923 25.695 17.6077C25.7374 17.623 25.7825 17.6294 25.8276 17.6266H31.2024C31.2901 17.6266 31.3741 17.5918 31.4361 17.5298C31.4981 17.4678 31.5329 17.3838 31.5329 17.2961" fill="#197E87"/>
<path fill-rule="evenodd" clip-rule="evenodd" d="M37.7185 24.4217C37.4897 24.1929 37.1982 24.0371 36.8809 23.9739C36.5635 23.9108 36.2346 23.9432 35.9357 24.067C35.6367 24.1908 35.3812 24.4005 35.2015 24.6696C35.0217 24.9386 34.9258 25.2549 34.9258 25.5784C34.9258 25.902 35.0217 26.2183 35.2015 26.4873C35.3812 26.7563 35.6367 26.966 35.9357 27.0898C36.2346 27.2136 36.5635 27.246 36.8809 27.1829C37.1982 27.1198 37.4897 26.964 37.7185 26.7352C37.8706 26.5834 37.9912 26.4031 38.0735 26.2046C38.1558 26.0061 38.1982 25.7933 38.1982 25.5784C38.1982 25.3636 38.1558 25.1508 38.0735 24.9523C37.9912 24.7538 37.8706 24.5735 37.7185 24.4217" fill="#23AAB4"/>
<path fill-rule="evenodd" clip-rule="evenodd" d="M37.7654 24.4638C37.5366 24.235 37.2451 24.0792 36.9278 24.0161C36.6104 23.9529 36.2815 23.9853 35.9825 24.1091C35.6836 24.233 35.4281 24.4426 35.2484 24.7117C35.0686 24.9807 34.9727 25.297 34.9727 25.6205C34.9727 25.9441 35.0686 26.2604 35.2484 26.5294C35.4281 26.7984 35.6836 27.0081 35.9825 27.1319C36.2815 27.2558 36.6104 27.2882 36.9278 27.225C37.2451 27.1619 37.5366 27.0061 37.7654 26.7773C38.0722 26.4705 38.2445 26.0544 38.2445 25.6205C38.2445 25.1867 38.0722 24.7706 37.7654 24.4638" fill="#23AAB4"/>
<path fill-rule="evenodd" clip-rule="evenodd" d="M37.8122 24.5135C37.5835 24.2847 37.292 24.1289 36.9746 24.0658C36.6573 24.0027 36.3284 24.0351 36.0294 24.1589C35.7305 24.2827 35.475 24.4924 35.2952 24.7614C35.1155 25.0304 35.0195 25.3467 35.0195 25.6703C35.0195 25.9938 35.1155 26.3101 35.2952 26.5792C35.475 26.8482 35.7305 27.0579 36.0294 27.1817C36.3284 27.3055 36.6573 27.3379 36.9746 27.2748C37.292 27.2117 37.5835 27.0558 37.8122 26.827C38.1187 26.5201 38.2909 26.1041 38.2909 25.6703C38.2909 25.2365 38.1187 24.8205 37.8122 24.5135Z" fill="#23AAB4"/>
<path fill-rule="evenodd" clip-rule="evenodd" d="M37.8558 24.5607C37.6271 24.3318 37.3356 24.1758 37.0183 24.1125C36.7009 24.0492 36.3718 24.0815 36.0728 24.2053C35.7738 24.329 35.5182 24.5387 35.3383 24.8078C35.1585 25.0769 35.0625 25.3932 35.0625 25.7169C35.0625 26.0405 35.1585 26.3569 35.3383 26.6259C35.5182 26.895 35.7738 27.1047 36.0728 27.2284C36.3718 27.3522 36.7009 27.3845 37.0183 27.3212C37.3356 27.2579 37.6271 27.102 37.8558 26.873C38.0077 26.7212 38.1282 26.5409 38.2104 26.3426C38.2926 26.1442 38.3349 25.9316 38.3349 25.7169C38.3349 25.5021 38.2926 25.2895 38.2104 25.0911C38.1282 24.8928 38.0077 24.7125 37.8558 24.5607" fill="#23AAB4"/>
<path fill-rule="evenodd" clip-rule="evenodd" d="M37.9021 24.6067C37.6733 24.3779 37.3818 24.2221 37.0645 24.159C36.7471 24.0959 36.4182 24.1283 36.1193 24.2521C35.8203 24.3759 35.5648 24.5856 35.3851 24.8546C35.2053 25.1236 35.1094 25.4399 35.1094 25.7635C35.1094 26.087 35.2053 26.4033 35.3851 26.6724C35.5648 26.9414 35.8203 27.1511 36.1193 27.2749C36.4182 27.3987 36.7471 27.4311 37.0645 27.368C37.3818 27.3049 37.6733 27.149 37.9021 26.9202C38.0541 26.7684 38.1748 26.5881 38.2571 26.3896C38.3394 26.1911 38.3818 25.9784 38.3818 25.7635C38.3818 25.5486 38.3394 25.3358 38.2571 25.1374C38.1748 24.9389 38.0541 24.7586 37.9021 24.6067" fill="#23AAB4"/>
<path fill-rule="evenodd" clip-rule="evenodd" d="M37.949 24.6526C37.7202 24.4238 37.4287 24.268 37.1113 24.2049C36.794 24.1418 36.4651 24.1742 36.1661 24.298C35.8672 24.4218 35.6117 24.6315 35.432 24.9005C35.2522 25.1695 35.1562 25.4858 35.1562 25.8094C35.1562 26.1329 35.2522 26.4492 35.432 26.7183C35.6117 26.9873 35.8672 27.197 36.1661 27.3208C36.4651 27.4446 36.794 27.477 37.1113 27.4139C37.4287 27.3508 37.7202 27.1949 37.949 26.9661C38.1012 26.8144 38.2219 26.6341 38.3043 26.4356C38.3867 26.2371 38.4292 26.0243 38.4292 25.8094C38.4292 25.5945 38.3867 25.3817 38.3043 25.1832C38.2219 24.9847 38.1012 24.8044 37.949 24.6526" fill="#23AAB4"/>
<path fill-rule="evenodd" clip-rule="evenodd" d="M38.0017 24.6986C37.7727 24.4703 37.4812 24.315 37.164 24.2524C36.8468 24.1897 36.5182 24.2224 36.2196 24.3464C35.921 24.4703 35.6658 24.68 35.4863 24.9489C35.3067 25.2178 35.2109 25.5339 35.2109 25.8572C35.2109 26.1806 35.3067 26.4966 35.4863 26.7656C35.6658 27.0345 35.921 27.2441 36.2196 27.3681C36.5182 27.4921 36.8468 27.5248 37.164 27.4621C37.4812 27.3994 37.7727 27.2442 38.0017 27.0159C38.3082 26.709 38.4803 26.2929 38.4803 25.8592C38.4803 25.4254 38.3082 25.0094 38.0017 24.7024" fill="#23AAB4"/>
<path fill-rule="evenodd" clip-rule="evenodd" d="M38.0433 24.7458C37.8146 24.5168 37.5231 24.3608 37.2058 24.2976C36.8884 24.2343 36.5593 24.2666 36.2603 24.3903C35.9613 24.5141 35.7057 24.7238 35.5258 24.9929C35.346 25.2619 35.25 25.5783 35.25 25.9019C35.25 26.2256 35.346 26.5419 35.5258 26.811C35.7057 27.08 35.9613 27.2897 36.2603 27.4135C36.5593 27.5373 36.8884 27.5695 37.2058 27.5063C37.5231 27.443 37.8146 27.287 38.0433 27.058C38.3497 26.7513 38.5218 26.3355 38.5218 25.9019C38.5218 25.4684 38.3497 25.0525 38.0433 24.7458" fill="#23AAB4"/>
<path fill-rule="evenodd" clip-rule="evenodd" d="M38.0896 24.7917C37.8608 24.5629 37.5693 24.4071 37.252 24.344C36.9346 24.2809 36.6057 24.3133 36.3068 24.4371C36.0078 24.5609 35.7523 24.7706 35.5726 25.0396C35.3928 25.3086 35.2969 25.6249 35.2969 25.9485C35.2969 26.272 35.3928 26.5883 35.5726 26.8574C35.7523 27.1264 36.0078 27.3361 36.3068 27.4599C36.6057 27.5837 36.9346 27.6161 37.252 27.553C37.5693 27.4898 37.8608 27.334 38.0896 27.1052C38.2416 26.9534 38.3623 26.7731 38.4446 26.5746C38.5269 26.3761 38.5693 26.1634 38.5693 25.9485C38.5693 25.7336 38.5269 25.5208 38.4446 25.3224C38.3623 25.1239 38.2416 24.9436 38.0896 24.7917Z" fill="#23AAB4"/>
<path fill-rule="evenodd" clip-rule="evenodd" d="M38.1326 24.8377C37.9038 24.6089 37.6123 24.4531 37.2949 24.39C36.9776 24.3268 36.6487 24.3592 36.3497 24.483C36.0508 24.6069 35.7953 24.8165 35.6155 25.0856C35.4358 25.3546 35.3398 25.6709 35.3398 25.9944C35.3398 26.318 35.4358 26.6343 35.6155 26.9033C35.7953 27.1723 36.0508 27.382 36.3497 27.5058C36.6487 27.6297 36.9776 27.6621 37.2949 27.5989C37.6123 27.5358 37.9038 27.38 38.1326 27.1512C38.2846 26.9994 38.4052 26.8191 38.4876 26.6206C38.5699 26.4221 38.6122 26.2093 38.6122 25.9944C38.6122 25.7796 38.5699 25.5668 38.4876 25.3683C38.4052 25.1698 38.2846 24.9895 38.1326 24.8377" fill="#23AAB4"/>
<path fill-rule="evenodd" clip-rule="evenodd" d="M38.1833 24.8836C37.9545 24.6548 37.6631 24.499 37.3457 24.4359C37.0284 24.3727 36.6994 24.4051 36.4005 24.5289C36.1016 24.6528 35.8461 24.8624 35.6663 25.1315C35.4866 25.4005 35.3906 25.7168 35.3906 26.0403C35.3906 26.3639 35.4866 26.6802 35.6663 26.9492C35.8461 27.2182 36.1016 27.4279 36.4005 27.5517C36.6994 27.6756 37.0284 27.708 37.3457 27.6448C37.6631 27.5817 37.9545 27.4259 38.1833 27.1971C38.3354 27.0453 38.456 26.865 38.5383 26.6665C38.6206 26.468 38.663 26.2552 38.663 26.0403C38.663 25.8255 38.6206 25.6127 38.5383 25.4142C38.456 25.2157 38.3354 25.0354 38.1833 24.8836" fill="#23AAB4"/>
<path fill-rule="evenodd" clip-rule="evenodd" d="M38.2263 24.9295C37.9975 24.7008 37.706 24.5449 37.3887 24.4818C37.0713 24.4187 36.7424 24.4511 36.4435 24.5749C36.1446 24.6987 35.8891 24.9084 35.7093 25.1774C35.5295 25.4465 35.4336 25.7627 35.4336 26.0863C35.4336 26.4099 35.5295 26.7262 35.7093 26.9952C35.8891 27.2642 36.1446 27.4739 36.4435 27.5977C36.7424 27.7215 37.0713 27.7539 37.3887 27.6908C37.706 27.6277 37.9975 27.4719 38.2263 27.2431C38.5328 26.9361 38.7049 26.5201 38.7049 26.0863C38.7049 25.6525 38.5328 25.2365 38.2263 24.9295Z" fill="#23AAB4"/>
<path fill-rule="evenodd" clip-rule="evenodd" d="M38.2738 24.9742C38.0451 24.7452 37.7536 24.5892 37.4362 24.526C37.1188 24.4627 36.7898 24.495 36.4908 24.6187C36.1917 24.7425 35.9361 24.9522 35.7563 25.2212C35.5765 25.4903 35.4805 25.8067 35.4805 26.1303C35.4805 26.4539 35.5765 26.7703 35.7563 27.0394C35.9361 27.3084 36.1917 27.5181 36.4908 27.6419C36.7898 27.7656 37.1188 27.7979 37.4362 27.7347C37.7536 27.6714 38.0451 27.5154 38.2738 27.2864C38.4257 27.1346 38.5462 26.9544 38.6283 26.756C38.7105 26.5577 38.7528 26.345 38.7528 26.1303C38.7528 25.9156 38.7105 25.703 38.6283 25.5046C38.5462 25.3062 38.4257 25.126 38.2738 24.9742Z" fill="#23AAB4"/>
<path fill-rule="evenodd" clip-rule="evenodd" d="M38.3201 25.0227C38.0913 24.7939 37.7998 24.6381 37.4824 24.575C37.1651 24.5118 36.8362 24.5442 36.5372 24.668C36.2383 24.7919 35.9828 25.0015 35.803 25.2706C35.6233 25.5396 35.5273 25.8559 35.5273 26.1794C35.5273 26.503 35.6233 26.8193 35.803 27.0883C35.9828 27.3573 36.2383 27.567 36.5372 27.6908C36.8362 27.8147 37.1651 27.8471 37.4824 27.7839C37.7998 27.7208 38.0913 27.565 38.3201 27.3362C38.4721 27.1844 38.5927 27.0041 38.6751 26.8056C38.7574 26.6071 38.7997 26.3943 38.7997 26.1794C38.7997 25.9646 38.7574 25.7518 38.6751 25.5533C38.5927 25.3548 38.4721 25.1745 38.3201 25.0227" fill="#23AAB4"/>
<path fill-rule="evenodd" clip-rule="evenodd" d="M38.3669 25.0686C38.1381 24.8399 37.8467 24.684 37.5293 24.6209C37.212 24.5578 36.883 24.5902 36.5841 24.714C36.2852 24.8378 36.0297 25.0475 35.8499 25.3165C35.6702 25.5856 35.5742 25.9018 35.5742 26.2254C35.5742 26.549 35.6702 26.8653 35.8499 27.1343C36.0297 27.4033 36.2852 27.613 36.5841 27.7368C36.883 27.8606 37.212 27.893 37.5293 27.8299C37.8467 27.7668 38.1381 27.611 38.3669 27.3822C38.5191 27.2304 38.6399 27.0501 38.7223 26.8516C38.8047 26.6531 38.8471 26.4403 38.8471 26.2254C38.8471 26.0105 38.8047 25.7977 38.7223 25.5992C38.6399 25.4007 38.5191 25.2204 38.3669 25.0686" fill="#23AAB4"/>
<path fill-rule="evenodd" clip-rule="evenodd" d="M38.4138 25.1146C38.185 24.8858 37.8935 24.73 37.5762 24.6669C37.2588 24.6037 36.9299 24.6361 36.631 24.76C36.3321 24.8838 36.0766 25.0935 35.8968 25.3625C35.717 25.6315 35.6211 25.9478 35.6211 26.2714C35.6211 26.5949 35.717 26.9112 35.8968 27.1802C36.0766 27.4493 36.3321 27.6589 36.631 27.7828C36.9299 27.9066 37.2588 27.939 37.5762 27.8759C37.8935 27.8127 38.185 27.6569 38.4138 27.4281C38.7206 27.1213 38.8929 26.7052 38.8929 26.2714C38.8929 25.8375 38.7206 25.4214 38.4138 25.1146" fill="#23AAB4"/>
<path fill-rule="evenodd" clip-rule="evenodd" d="M38.4568 25.1605C38.228 24.9317 37.9365 24.7759 37.6192 24.7128C37.3018 24.6496 36.9729 24.682 36.674 24.8059C36.375 24.9297 36.1195 25.1394 35.9398 25.4084C35.76 25.6774 35.6641 25.9937 35.6641 26.3173C35.6641 26.6408 35.76 26.9571 35.9398 27.2261C36.1195 27.4952 36.375 27.7048 36.674 27.8287C36.9729 27.9525 37.3018 27.9849 37.6192 27.9217C37.9365 27.8586 38.228 27.7028 38.4568 27.474C38.7633 27.1671 38.9354 26.751 38.9354 26.3173C38.9354 25.8835 38.7633 25.4675 38.4568 25.1605" fill="#23AAB4"/>
<path fill-rule="evenodd" clip-rule="evenodd" d="M38.5036 25.2077C38.2749 24.979 37.9834 24.8231 37.666 24.76C37.3487 24.6969 37.0198 24.7293 36.7208 24.8531C36.4219 24.9769 36.1664 25.1866 35.9866 25.4556C35.8069 25.7247 35.7109 26.0409 35.7109 26.3645C35.7109 26.6881 35.8069 27.0043 35.9866 27.2734C36.1664 27.5424 36.4219 27.7521 36.7208 27.8759C37.0198 27.9997 37.3487 28.0321 37.666 27.969C37.9834 27.9059 38.2749 27.7501 38.5036 27.5213C38.6557 27.3694 38.7763 27.1891 38.8586 26.9906C38.941 26.7921 38.9833 26.5794 38.9833 26.3645C38.9833 26.1496 38.941 25.9369 38.8586 25.7384C38.7763 25.5399 38.6557 25.3596 38.5036 25.2077" fill="#23AAB4"/>
<path fill-rule="evenodd" clip-rule="evenodd" d="M38.5504 25.2537C38.3216 25.0249 38.0301 24.8691 37.7128 24.8059C37.3954 24.7428 37.0665 24.7752 36.7676 24.899C36.4687 25.0228 36.2132 25.2325 36.0334 25.5016C35.8536 25.7706 35.7577 26.0869 35.7577 26.4104C35.7577 26.734 35.8536 27.0503 36.0334 27.3193C36.2132 27.5883 36.4687 27.798 36.7676 27.9218C37.0665 28.0457 37.3954 28.078 37.7128 28.0149C38.0301 27.9518 38.3216 27.796 38.5504 27.5672C38.7025 27.4154 38.8231 27.2351 38.9054 27.0366C38.9877 26.8381 39.0301 26.6253 39.0301 26.4104C39.0301 26.1956 38.9877 25.9828 38.9054 25.7843C38.8231 25.5858 38.7025 25.4055 38.5504 25.2537" fill="#23AAB4"/>
<path fill-rule="evenodd" clip-rule="evenodd" d="M38.5974 25.2996C38.3686 25.0708 38.0771 24.915 37.7598 24.8519C37.4424 24.7887 37.1135 24.8211 36.8146 24.945C36.5157 25.0688 36.2602 25.2785 36.0804 25.5475C35.9006 25.8165 35.8047 26.1328 35.8047 26.4564C35.8047 26.7799 35.9006 27.0962 36.0804 27.3652C36.2602 27.6343 36.5157 27.8439 36.8146 27.9678C37.1135 28.0916 37.4424 28.124 37.7598 28.0608C38.0771 27.9977 38.3686 27.8419 38.5974 27.6131C38.7495 27.4613 38.8701 27.281 38.9524 27.0825C39.0347 26.884 39.0771 26.6712 39.0771 26.4564C39.0771 26.2415 39.0347 26.0287 38.9524 25.8302C38.8701 25.6317 38.7495 25.4514 38.5974 25.2996" fill="#23AAB4"/>
<path fill-rule="evenodd" clip-rule="evenodd" d="M38.6429 25.3455C38.4144 25.116 38.1229 24.9595 37.8054 24.8958C37.4879 24.8321 37.1586 24.8641 36.8592 24.9877C36.5599 25.1113 36.3039 25.3209 36.1239 25.5901C35.9438 25.8593 35.8477 26.1759 35.8477 26.4998C35.8477 26.8236 35.9438 27.1402 36.1239 27.4094C36.3039 27.6786 36.5599 27.8882 36.8592 28.0118C37.1586 28.1355 37.4879 28.1674 37.8054 28.1037C38.1229 28.04 38.4144 27.8835 38.6429 27.654C38.9494 27.347 39.1215 26.931 39.1215 26.4972C39.1215 26.0634 38.9494 25.6474 38.6429 25.3404" fill="#23AAB4"/>
<path fill-rule="evenodd" clip-rule="evenodd" d="M38.6879 25.3928C38.4592 25.1638 38.1677 25.0078 37.8503 24.9445C37.5329 24.8813 37.2039 24.9136 36.9048 25.0373C36.6058 25.1611 36.3502 25.3708 36.1704 25.6398C35.9905 25.9089 35.8945 26.2253 35.8945 26.5489C35.8945 26.8725 35.9905 27.1889 36.1704 27.458C36.3502 27.727 36.6058 27.9367 36.9048 28.0605C37.2039 28.1842 37.5329 28.2165 37.8503 28.1532C38.1677 28.09 38.4592 27.934 38.6879 27.705C38.8397 27.5532 38.9602 27.373 39.0424 27.1746C39.1246 26.9762 39.1669 26.7636 39.1669 26.5489C39.1669 26.3342 39.1246 26.1215 39.0424 25.9232C38.9602 25.7248 38.8397 25.5446 38.6879 25.3928Z" fill="#23AAB4"/>
<path fill-rule="evenodd" clip-rule="evenodd" d="M38.7341 25.4387C38.5053 25.2099 38.2138 25.0541 37.8965 24.991C37.5792 24.9278 37.2502 24.9602 36.9513 25.0841C36.6524 25.2079 36.3969 25.4176 36.2171 25.6866C36.0374 25.9556 35.9414 26.2719 35.9414 26.5955C35.9414 26.919 36.0374 27.2353 36.2171 27.5043C36.3969 27.7734 36.6524 27.983 36.9513 28.1069C37.2502 28.2307 37.5792 28.2631 37.8965 28.1999C38.2138 28.1368 38.5053 27.981 38.7341 27.7522C38.8862 27.6004 39.0068 27.4201 39.0891 27.2216C39.1714 27.0231 39.2138 26.8103 39.2138 26.5955C39.2138 26.3806 39.1714 26.1678 39.0891 25.9693C39.0068 25.7708 38.8862 25.5905 38.7341 25.4387Z" fill="#23AAB4"/>
<path fill-rule="evenodd" clip-rule="evenodd" d="M38.781 25.4847C38.5522 25.2559 38.2607 25.1001 37.9434 25.0369C37.626 24.9738 37.2971 25.0062 36.9982 25.13C36.6992 25.2538 36.4437 25.4635 36.264 25.7325C36.0842 26.0016 35.9883 26.3179 35.9883 26.6414C35.9883 26.965 36.0842 27.2813 36.264 27.5503C36.4437 27.8193 36.6992 28.029 36.9982 28.1528C37.2971 28.2766 37.626 28.309 37.9434 28.2459C38.2607 28.1828 38.5522 28.027 38.781 27.7982C38.9331 27.6464 39.0537 27.466 39.136 27.2676C39.2183 27.0691 39.2607 26.8563 39.2607 26.6414C39.2607 26.4265 39.2183 26.2138 39.136 26.0153C39.0537 25.8168 38.9331 25.6365 38.781 25.4847" fill="#23AAB4"/>
<path fill-rule="evenodd" clip-rule="evenodd" d="M38.8279 25.5306C38.5991 25.3018 38.3076 25.146 37.9903 25.0828C37.6729 25.0197 37.344 25.0521 37.045 25.1759C36.7461 25.2997 36.4906 25.5094 36.3109 25.7784C36.1311 26.0475 36.0352 26.3638 36.0352 26.6873C36.0352 27.0109 36.1311 27.3272 36.3109 27.5962C36.4906 27.8652 36.7461 28.0749 37.045 28.1987C37.344 28.3225 37.6729 28.3549 37.9903 28.2918C38.3076 28.2287 38.5991 28.0729 38.8279 27.8441C39.1347 27.5373 39.307 27.1212 39.307 26.6873C39.307 26.2535 39.1347 25.8374 38.8279 25.5306" fill="#23AAB4"/>
<path fill-rule="evenodd" clip-rule="evenodd" d="M38.8747 25.5765C38.646 25.3477 38.3545 25.1919 38.0371 25.1288C37.7198 25.0657 37.3909 25.0981 37.0919 25.2219C36.793 25.3457 36.5375 25.5554 36.3577 25.8244C36.178 26.0934 36.082 26.4097 36.082 26.7333C36.082 27.0568 36.178 27.3731 36.3577 27.6422C36.5375 27.9112 36.793 28.1209 37.0919 28.2447C37.3909 28.3685 37.7198 28.4009 38.0371 28.3378C38.3545 28.2746 38.646 28.1188 38.8747 27.89C39.1812 27.5831 39.3534 27.167 39.3534 26.7333C39.3534 26.2995 39.1812 25.8835 38.8747 25.5765Z" fill="#23AAB4"/>
<path fill-rule="evenodd" clip-rule="evenodd" d="M38.9223 25.6237C38.6935 25.3948 38.4021 25.2388 38.0847 25.1755C37.7673 25.1122 37.4382 25.1445 37.1392 25.2683C36.8402 25.392 36.5846 25.6017 36.4047 25.8708C36.2249 26.1398 36.1289 26.4562 36.1289 26.7798C36.1289 27.1035 36.2249 27.4198 36.4047 27.6889C36.5846 27.958 36.8402 28.1677 37.1392 28.2914C37.4382 28.4152 37.7673 28.4475 38.0847 28.3842C38.4021 28.3209 38.6935 28.1649 38.9223 27.936C39.0741 27.7842 39.1946 27.6039 39.2768 27.4056C39.359 27.2072 39.4013 26.9946 39.4013 26.7798C39.4013 26.5651 39.359 26.3525 39.2768 26.1541C39.1946 25.9558 39.0741 25.7755 38.9223 25.6237Z" fill="#23AAB4"/>
<path fill-rule="evenodd" clip-rule="evenodd" d="M38.9685 25.6697C38.7397 25.4409 38.4482 25.2851 38.1309 25.2219C37.8135 25.1588 37.4846 25.1912 37.1857 25.315C36.8867 25.4388 36.6312 25.6485 36.4515 25.9175C36.2717 26.1866 36.1758 26.5029 36.1758 26.8264C36.1758 27.15 36.2717 27.4663 36.4515 27.7353C36.6312 28.0043 36.8867 28.214 37.1857 28.3378C37.4846 28.4616 37.8135 28.494 38.1309 28.4309C38.4482 28.3678 38.7397 28.212 38.9685 27.9832C39.1206 27.8314 39.2412 27.651 39.3235 27.4525C39.4058 27.2541 39.4482 27.0413 39.4482 26.8264C39.4482 26.6115 39.4058 26.3988 39.3235 26.2003C39.2412 26.0018 39.1206 25.8215 38.9685 25.6697Z" fill="#23AAB4"/>
<path fill-rule="evenodd" clip-rule="evenodd" d="M39.0154 25.7156C38.7866 25.4868 38.4951 25.331 38.1778 25.2679C37.8604 25.2048 37.5315 25.2372 37.2325 25.361C36.9336 25.4848 36.6781 25.6945 36.4984 25.9635C36.3186 26.2325 36.2227 26.5488 36.2227 26.8724C36.2227 27.1959 36.3186 27.5122 36.4984 27.7813C36.6781 28.0503 36.9336 28.26 37.2325 28.3838C37.5315 28.5076 37.8604 28.54 38.1778 28.4769C38.4951 28.4137 38.7866 28.2579 39.0154 28.0291C39.1674 27.8773 39.2881 27.697 39.3704 27.4985C39.4527 27.3 39.495 27.0873 39.495 26.8724C39.495 26.6575 39.4527 26.4447 39.3704 26.2462C39.2881 26.0478 39.1674 25.8674 39.0154 25.7156" fill="#23AAB4"/>
<path fill-rule="evenodd" clip-rule="evenodd" d="M39.0583 25.7616C38.8296 25.5328 38.5381 25.377 38.2207 25.3138C37.9034 25.2507 37.5744 25.2831 37.2755 25.4069C36.9766 25.5308 36.7211 25.7404 36.5413 26.0095C36.3616 26.2785 36.2656 26.5948 36.2656 26.9183C36.2656 27.2419 36.3616 27.5582 36.5413 27.8272C36.7211 28.0962 36.9766 28.3059 37.2755 28.4297C37.5744 28.5536 37.9034 28.5859 38.2207 28.5228C38.5381 28.4597 38.8296 28.3039 39.0583 28.0751C39.3648 27.7681 39.5369 27.3521 39.5369 26.9183C39.5369 26.4846 39.3648 26.0685 39.0583 25.7616Z" fill="#23AAB4"/>
<path fill-rule="evenodd" clip-rule="evenodd" d="M39.1058 25.8088C38.8771 25.5798 38.5856 25.4238 38.2683 25.3605C37.9509 25.2973 37.6218 25.3296 37.3228 25.4533C37.0238 25.5771 36.7682 25.7868 36.5883 26.0558C36.4085 26.3249 36.3125 26.6413 36.3125 26.9649C36.3125 27.2885 36.4085 27.6049 36.5883 27.874C36.7682 28.143 37.0238 28.3527 37.3228 28.4765C37.6218 28.6002 37.9509 28.6325 38.2683 28.5693C38.5856 28.506 38.8771 28.35 39.1058 28.121C39.4122 27.8143 39.5843 27.3985 39.5843 26.9649C39.5843 26.5314 39.4122 26.1155 39.1058 25.8088" fill="#23AAB4"/>
<path fill-rule="evenodd" clip-rule="evenodd" d="M39.1501 25.8547C38.9215 25.6253 38.63 25.469 38.3126 25.4054C37.9951 25.3419 37.6659 25.3739 37.3666 25.4976C37.0674 25.6213 36.8115 25.8309 36.6316 26.1001C36.4516 26.3692 36.3555 26.6857 36.3555 27.0095C36.3555 27.3333 36.4516 27.6498 36.6316 27.919C36.8115 28.1881 37.0674 28.3978 37.3666 28.5214C37.6659 28.6451 37.9951 28.6772 38.3126 28.6136C38.63 28.55 38.9215 28.3937 39.1501 28.1644C39.3021 28.0125 39.4228 27.8322 39.5051 27.6337C39.5874 27.4353 39.6298 27.2225 39.6298 27.0076C39.6298 26.7927 39.5874 26.58 39.5051 26.3815C39.4228 26.183 39.3021 26.0027 39.1501 25.8508" fill="#23AAB4"/>
<path fill-rule="evenodd" clip-rule="evenodd" d="M39.199 25.9006C38.9702 25.6718 38.6787 25.516 38.3613 25.4529C38.044 25.3898 37.7151 25.4222 37.4161 25.546C37.1172 25.6698 36.8617 25.8795 36.682 26.1485C36.5022 26.4175 36.4062 26.7338 36.4062 27.0574C36.4062 27.3809 36.5022 27.6972 36.682 27.9662C36.8617 28.2353 37.1172 28.445 37.4161 28.5688C37.7151 28.6926 38.044 28.725 38.3613 28.6619C38.6787 28.5987 38.9702 28.4429 39.199 28.2141C39.351 28.0623 39.4717 27.882 39.554 27.6835C39.6363 27.485 39.6786 27.2722 39.6786 27.0574C39.6786 26.8425 39.6363 26.6297 39.554 26.4312C39.4717 26.2328 39.351 26.0524 39.199 25.9006" fill="#23AAB4"/>
<path fill-rule="evenodd" clip-rule="evenodd" d="M39.2458 25.9466C39.017 25.7178 38.7256 25.562 38.4082 25.4988C38.0909 25.4357 37.7619 25.4681 37.463 25.5919C37.1641 25.7157 36.9086 25.9254 36.7288 26.1945C36.5491 26.4635 36.4531 26.7798 36.4531 27.1033C36.4531 27.4269 36.5491 27.7432 36.7288 28.0122C36.9086 28.2812 37.1641 28.4909 37.463 28.6147C37.7619 28.7386 38.0909 28.7709 38.4082 28.7078C38.7256 28.6447 39.017 28.4889 39.2458 28.2601C39.5526 27.9533 39.725 27.5372 39.725 27.1033C39.725 26.6695 39.5526 26.2534 39.2458 25.9466" fill="#23AAB4"/>
<path fill-rule="evenodd" clip-rule="evenodd" d="M39.2888 25.9951C39.06 25.7663 38.7685 25.6105 38.4512 25.5474C38.1338 25.4842 37.8049 25.5166 37.506 25.6405C37.2071 25.7643 36.9516 25.974 36.7718 26.243C36.592 26.512 36.4961 26.8283 36.4961 27.1519C36.4961 27.4754 36.592 27.7917 36.7718 28.0607C36.9516 28.3298 37.2071 28.5394 37.506 28.6633C37.8049 28.7871 38.1338 28.8195 38.4512 28.7563C38.7685 28.6932 39.06 28.5374 39.2888 28.3086C39.5953 28.0017 39.7674 27.5856 39.7674 27.1519C39.7674 26.7181 39.5953 26.3021 39.2888 25.9951Z" fill="#23AAB4"/>
<path fill-rule="evenodd" clip-rule="evenodd" d="M39.3363 26.0397C39.1076 25.8108 38.8161 25.6548 38.4987 25.5915C38.1813 25.5282 37.8523 25.5605 37.5533 25.6843C37.2542 25.8081 36.9986 26.0177 36.8188 26.2868C36.639 26.5559 36.543 26.8722 36.543 27.1959C36.543 27.5195 36.639 27.8359 36.8188 28.1049C36.9986 28.374 37.2542 28.5837 37.5533 28.7074C37.8523 28.8312 38.1813 28.8635 38.4987 28.8002C38.8161 28.7369 39.1076 28.581 39.3363 28.352C39.4882 28.2002 39.6087 28.0199 39.6908 27.8216C39.773 27.6232 39.8153 27.4106 39.8153 27.1959C39.8153 26.9811 39.773 26.7685 39.6908 26.5701C39.6087 26.3718 39.4882 26.1915 39.3363 26.0397" fill="#23AAB4"/>
<path fill-rule="evenodd" clip-rule="evenodd" d="M39.3826 26.0857C39.1538 25.8569 38.8623 25.7011 38.5449 25.6379C38.2276 25.5748 37.8987 25.6072 37.5997 25.731C37.3008 25.8548 37.0453 26.0645 36.8655 26.3336C36.6858 26.6026 36.5898 26.9189 36.5898 27.2424C36.5898 27.566 36.6858 27.8823 36.8655 28.1513C37.0453 28.4203 37.3008 28.63 37.5997 28.7538C37.8987 28.8777 38.2276 28.91 38.5449 28.8469C38.8623 28.7838 39.1538 28.628 39.3826 28.3992C39.5346 28.2474 39.6552 28.0671 39.7376 27.8686C39.8199 27.6701 39.8622 27.4573 39.8622 27.2424C39.8622 27.0276 39.8199 26.8148 39.7376 26.6163C39.6552 26.4178 39.5346 26.2375 39.3826 26.0857" fill="#23AAB4"/>
<path fill-rule="evenodd" clip-rule="evenodd" d="M39.4294 26.1316C39.2006 25.9028 38.9092 25.747 38.5918 25.6839C38.2745 25.6208 37.9455 25.6532 37.6466 25.777C37.3477 25.9008 37.0922 26.1105 36.9124 26.3795C36.7327 26.6485 36.6367 26.9648 36.6367 27.2884C36.6367 27.6119 36.7327 27.9282 36.9124 28.1973C37.0922 28.4663 37.3477 28.676 37.6466 28.7998C37.9455 28.9236 38.2745 28.956 38.5918 28.8929C38.9092 28.8298 39.2006 28.6739 39.4294 28.4452C39.5816 28.2934 39.7024 28.1131 39.7848 27.9146C39.8672 27.7161 39.9096 27.5033 39.9096 27.2884C39.9096 27.0735 39.8672 26.8607 39.7848 26.6622C39.7024 26.4637 39.5816 26.2834 39.4294 26.1316" fill="#23AAB4"/>
<path fill-rule="evenodd" clip-rule="evenodd" d="M39.4763 26.1775C39.2475 25.9487 38.956 25.7929 38.6387 25.7298C38.3213 25.6667 37.9924 25.6991 37.6935 25.8229C37.3946 25.9467 37.1391 26.1564 36.9593 26.4254C36.7795 26.6944 36.6836 27.0107 36.6836 27.3343C36.6836 27.6578 36.7795 27.9741 36.9593 28.2432C37.1391 28.5122 37.3946 28.7219 37.6935 28.8457C37.9924 28.9695 38.3213 29.0019 38.6387 28.9388C38.956 28.8757 39.2475 28.7198 39.4763 28.491C39.7828 28.1841 39.9549 27.7681 39.9549 27.3343C39.9549 26.9005 39.7828 26.4845 39.4763 26.1775Z" fill="#23AAB4"/>
<path fill-rule="evenodd" clip-rule="evenodd" d="M39.5199 26.2247C39.2912 25.9958 38.9997 25.8398 38.6823 25.7765C38.3649 25.7132 38.0359 25.7455 37.7369 25.8693C37.4378 25.9931 37.1822 26.2027 37.0024 26.4718C36.8226 26.7409 36.7266 27.0572 36.7266 27.3809C36.7266 27.7045 36.8226 28.0209 37.0024 28.2899C37.1822 28.559 37.4378 28.7687 37.7369 28.8924C38.0359 29.0162 38.3649 29.0485 38.6823 28.9852C38.9997 28.9219 39.2912 28.766 39.5199 28.537C39.8263 28.2302 39.9984 27.8144 39.9984 27.3809C39.9984 26.9473 39.8263 26.5315 39.5199 26.2247" fill="#23AAB4"/>
<path fill-rule="evenodd" clip-rule="evenodd" d="M39.5661 26.2707C39.3374 26.0419 39.0459 25.8861 38.7285 25.8229C38.4112 25.7598 38.0823 25.7922 37.7833 25.916C37.4844 26.0398 37.2289 26.2495 37.0491 26.5186C36.8694 26.7876 36.7734 27.1039 36.7734 27.4274C36.7734 27.751 36.8694 28.0673 37.0491 28.3363C37.2289 28.6053 37.4844 28.815 37.7833 28.9388C38.0823 29.0626 38.4112 29.095 38.7285 29.0319C39.0459 28.9688 39.3374 28.813 39.5661 28.5842C39.7182 28.4324 39.8388 28.2521 39.9211 28.0536C40.0035 27.8551 40.0458 27.6423 40.0458 27.4274C40.0458 27.2126 40.0035 26.9998 39.9211 26.8013C39.8388 26.6028 39.7182 26.4225 39.5661 26.2707Z" fill="#23AAB4"/>
<path fill-rule="evenodd" clip-rule="evenodd" d="M39.613 26.3166C39.3842 26.0878 39.0927 25.932 38.7754 25.8689C38.4581 25.8058 38.1291 25.8382 37.8302 25.962C37.5313 26.0858 37.2758 26.2955 37.096 26.5645C36.9163 26.8335 36.8203 27.1498 36.8203 27.4734C36.8203 27.7969 36.9163 28.1132 37.096 28.3823C37.2758 28.6513 37.5313 28.861 37.8302 28.9848C38.1291 29.1086 38.4581 29.141 38.7754 29.0779C39.0927 29.0148 39.3842 28.8589 39.613 28.6301C39.7651 28.4783 39.8857 28.298 39.968 28.0995C40.0503 27.901 40.0927 27.6883 40.0927 27.4734C40.0927 27.2585 40.0503 27.0457 39.968 26.8473C39.8857 26.6488 39.7651 26.4685 39.613 26.3166Z" fill="#23AAB4"/>
<path fill-rule="evenodd" clip-rule="evenodd" d="M39.6605 26.3626C39.4318 26.1336 39.1403 25.9776 38.8229 25.9143C38.5056 25.851 38.1765 25.8833 37.8775 26.0071C37.5785 26.1309 37.3229 26.3405 37.143 26.6096C36.9632 26.8787 36.8672 27.195 36.8672 27.5187C36.8672 27.8423 36.9632 28.1587 37.143 28.4277C37.3229 28.6968 37.5785 28.9065 37.8775 29.0303C38.1765 29.154 38.5056 29.1863 38.8229 29.123C39.1403 29.0598 39.4318 28.9038 39.6605 28.6748C39.8126 28.523 39.9332 28.3427 40.0155 28.1442C40.0978 27.9457 40.1402 27.7329 40.1402 27.518C40.1402 27.3032 40.0978 27.0904 40.0155 26.8919C39.9332 26.6934 39.8126 26.5131 39.6605 26.3613" fill="#23AAB4"/>
<path fill-rule="evenodd" clip-rule="evenodd" d="M39.7068 26.4085C39.478 26.1797 39.1865 26.0239 38.8692 25.9608C38.5518 25.8976 38.2229 25.93 37.924 26.0538C37.625 26.1777 37.3695 26.3873 37.1898 26.6564C37.01 26.9254 36.9141 27.2417 36.9141 27.5652C36.9141 27.8888 37.01 28.2051 37.1898 28.4741C37.3695 28.7431 37.625 28.9528 37.924 29.0766C38.2229 29.2005 38.5518 29.2329 38.8692 29.1697C39.1865 29.1066 39.478 28.9508 39.7068 28.722C40.0133 28.415 40.1854 27.999 40.1854 27.5652C40.1854 27.1315 40.0133 26.7154 39.7068 26.4085" fill="#23AAB4"/>
<path fill-rule="evenodd" clip-rule="evenodd" d="M39.7543 26.4558C39.5256 26.2268 39.2341 26.0708 38.9167 26.0075C38.5993 25.9442 38.2703 25.9765 37.9712 26.1003C37.6722 26.2241 37.4166 26.4337 37.2368 26.7028C37.0569 26.9719 36.9609 27.2882 36.9609 27.6119C36.9609 27.9355 37.0569 28.2519 37.2368 28.5209C37.4166 28.79 37.6722 28.9997 37.9712 29.1235C38.2703 29.2472 38.5993 29.2795 38.9167 29.2162C39.2341 29.153 39.5256 28.997 39.7543 28.768C39.9062 28.6162 40.0266 28.436 40.1088 28.2376C40.191 28.0392 40.2333 27.8266 40.2333 27.6119C40.2333 27.3972 40.191 27.1845 40.1088 26.9862C40.0266 26.7878 39.9062 26.6076 39.7543 26.4558Z" fill="#23AAB4"/>
<path fill-rule="evenodd" clip-rule="evenodd" d="M39.8005 26.5055C39.5717 26.2767 39.2802 26.1209 38.9629 26.0577C38.6456 25.9946 38.3166 26.027 38.0177 26.1508C37.7188 26.2746 37.4633 26.4843 37.2835 26.7534C37.1038 27.0224 37.0078 27.3387 37.0078 27.6622C37.0078 27.9858 37.1038 28.3021 37.2835 28.5711C37.4633 28.8401 37.7188 29.0498 38.0177 29.1736C38.3166 29.2975 38.6456 29.3298 38.9629 29.2667C39.2802 29.2036 39.5717 29.0478 39.8005 28.819C39.9526 28.6672 40.0732 28.4869 40.1555 28.2884C40.2378 28.0899 40.2802 27.8771 40.2802 27.6622C40.2802 27.4474 40.2378 27.2346 40.1555 27.0361C40.0732 26.8376 39.9526 26.6573 39.8005 26.5055Z" fill="#23AAB4"/>
<path fill-rule="evenodd" clip-rule="evenodd" d="M39.8435 26.5476C39.6147 26.3188 39.3232 26.163 39.0059 26.0999C38.6885 26.0367 38.3596 26.0691 38.0607 26.1929C37.7617 26.3168 37.5062 26.5264 37.3265 26.7955C37.1467 27.0645 37.0508 27.3808 37.0508 27.7043C37.0508 28.0279 37.1467 28.3442 37.3265 28.6132C37.5062 28.8822 37.7617 29.0919 38.0607 29.2157C38.3596 29.3396 38.6885 29.372 39.0059 29.3088C39.3232 29.2457 39.6147 29.0899 39.8435 28.8611C39.9957 28.7094 40.1165 28.5291 40.1989 28.3306C40.2813 28.1321 40.3237 27.9193 40.3237 27.7043C40.3237 27.4894 40.2813 27.2766 40.1989 27.0781C40.1165 26.8796 39.9957 26.6993 39.8435 26.5476" fill="#23AAB4"/>
<path fill-rule="evenodd" clip-rule="evenodd" d="M39.8904 26.5935C39.6616 26.3648 39.3701 26.2089 39.0527 26.1458C38.7354 26.0827 38.4065 26.1151 38.1075 26.2389C37.8086 26.3627 37.5531 26.5724 37.3734 26.8414C37.1936 27.1105 37.0977 27.4267 37.0977 27.7503C37.0977 28.0739 37.1936 28.3902 37.3734 28.6592C37.5531 28.9282 37.8086 29.1379 38.1075 29.2617C38.4065 29.3855 38.7354 29.4179 39.0527 29.3548C39.3701 29.2917 39.6616 29.1359 39.8904 28.9071C40.1972 28.6003 40.3695 28.1842 40.3695 27.7503C40.3695 27.3164 40.1972 26.9003 39.8904 26.5935" fill="#23AAB4"/>
<path fill-rule="evenodd" clip-rule="evenodd" d="M39.9372 26.6395C39.7085 26.4107 39.417 26.2549 39.0996 26.1918C38.7823 26.1287 38.4534 26.161 38.1544 26.2849C37.8555 26.4087 37.6 26.6184 37.4202 26.8874C37.2405 27.1564 37.1445 27.4727 37.1445 27.7963C37.1445 28.1198 37.2405 28.4361 37.4202 28.7051C37.6 28.9742 37.8555 29.1838 38.1544 29.3077C38.4534 29.4315 38.7823 29.4639 39.0996 29.4008C39.417 29.3376 39.7085 29.1818 39.9372 28.953C40.2437 28.6461 40.4159 28.23 40.4159 27.7963C40.4159 27.3625 40.2437 26.9465 39.9372 26.6395" fill="#23AAB4"/>
<path fill-rule="evenodd" clip-rule="evenodd" d="M39.9841 26.6867C39.7553 26.4579 39.4638 26.3021 39.1465 26.239C38.8292 26.1758 38.5002 26.2082 38.2013 26.332C37.9024 26.4559 37.6469 26.6655 37.4671 26.9346C37.2874 27.2036 37.1914 27.5199 37.1914 27.8434C37.1914 28.167 37.2874 28.4833 37.4671 28.7523C37.6469 29.0213 37.9024 29.231 38.2013 29.3548C38.5002 29.4787 38.8292 29.5111 39.1465 29.4479C39.4638 29.3848 39.7553 29.229 39.9841 29.0002C40.1362 28.8484 40.2568 28.6681 40.3391 28.4696C40.4214 28.2711 40.4638 28.0583 40.4638 27.8434C40.4638 27.6286 40.4214 27.4158 40.3391 27.2173C40.2568 27.0188 40.1362 26.8385 39.9841 26.6867" fill="#23AAB4"/>
<path fill-rule="evenodd" clip-rule="evenodd" d="M40.031 26.7326C39.8022 26.5039 39.5107 26.348 39.1934 26.2849C38.876 26.2218 38.5471 26.2542 38.2482 26.378C37.9492 26.5018 37.6937 26.7115 37.514 26.9805C37.3342 27.2496 37.2383 27.5658 37.2383 27.8894C37.2383 28.213 37.3342 28.5293 37.514 28.7983C37.6937 29.0673 37.9492 29.277 38.2482 29.4008C38.5471 29.5246 38.876 29.557 39.1934 29.4939C39.5107 29.4308 39.8022 29.275 40.031 29.0462C40.1831 28.8943 40.3037 28.714 40.386 28.5155C40.4683 28.317 40.5107 28.1043 40.5107 27.8894C40.5107 27.6745 40.4683 27.4618 40.386 27.2633C40.3037 27.0648 40.1831 26.8845 40.031 26.7326" fill="#23AAB4"/>
<path fill-rule="evenodd" clip-rule="evenodd" d="M40.0779 26.7786C39.8491 26.5498 39.5576 26.394 39.2403 26.3309C38.9229 26.2678 38.594 26.3001 38.295 26.424C37.9961 26.5478 37.7406 26.7575 37.5609 27.0265C37.3811 27.2955 37.2852 27.6118 37.2852 27.9354C37.2852 28.2589 37.3811 28.5752 37.5609 28.8442C37.7406 29.1133 37.9961 29.3229 38.295 29.4468C38.594 29.5706 38.9229 29.603 39.2403 29.5399C39.5576 29.4767 39.8491 29.3209 40.0779 29.0921C40.2299 28.9403 40.3506 28.76 40.4329 28.5615C40.5152 28.363 40.5575 28.1502 40.5575 27.9354C40.5575 27.7205 40.5152 27.5077 40.4329 27.3092C40.3506 27.1107 40.2299 26.9304 40.0779 26.7786" fill="#23AAB4"/>
</svg>
